# xmcd
#
# Track frame offsets:
#	150
#	22016
#	42352
#	60610
#	78780
#	95570
#	111299
#	133181
#	153493
#	171728
#	189927
#	206768
#
# Disc length: 2969 seconds
#
# Revision: 1
# Processed by: cddbd v1.5.2PL0 Copyright (c) Steve Scherf et al.
# Submitted via: audiograbber 1.83.01
#
DISCID=a80b970c
DTITLE=Karaoke Country Hot Hits - Country Chartbusters Vol.277
DYEAR=1900
DGENRE=Karaoke
TTITLE0=What I did Right (Guide Vocals)
TTITLE1=She Is (Guide Vocals)
TTITLE2=Rose Bouquet (Guide Vocals)
TTITLE3=The Most Beautiful Girl (Guide Vocals)
TTITLE4=Mrs. Steven Rudy (Guide Vocals)
TTITLE5=Burn Down The Trailer Park (Guide Vocals)
TTITLE6=What I did Right (Performance Tracks)
TTITLE7=She Is (Performance Tracks)
TTITLE8=Rose Bouquet (Performance Tracks)
TTITLE9=The Most Beautiful Girl (Performance Tracks)
TTITLE10=Mrs. Steven Rudy (Performance Tracks)
TTITLE11=Burn Down the Trailer Park (Performance Tracks)
EXTD=
EXTT0=
EXTT1=
EXTT2=
EXTT3=
EXTT4=
EXTT5=
EXTT6=
EXTT7=
EXTT8=
EXTT9=
EXTT10=
EXTT11=
PLAYORDER=
